<?xml version="1.0" encoding="UTF-8"?>
<svg id="_圖層_1" data-name="圖層_1" xmlns="http://www.w3.org/2000/svg" version="1.1" viewBox="0 0 1000 1000">
  <!-- Generator: Adobe Illustrator 29.0.1, SVG Export Plug-In . SVG Version: 2.1.0 Build 192)  -->
  <defs>
    <style>
      .st0 {
        fill: #333;
      }
    </style>
  </defs>
  <path class="st0" d="M500,719.13c-119.96,0-217.4-96.39-219.11-215.95-1.72-120.46,95-220.32,215.45-222.28,61.96-1.01,118.15,23.7,158.61,64.15l145.14-145.14c-165.73-165.73-434.44-165.73-600.17,0-165.73,165.73-165.73,434.44,0,600.17,132.37,132.37,330.42,159.02,489.24,79.94,62.66-31.2,76.03-114.85,26.53-164.34h0c-31.07-31.07-78.59-39.16-117.9-19.52-29.43,14.7-62.64,22.97-97.78,22.97Z"/>
  <circle class="st0" cx="825.43" cy="641.88" r="62.93"/>
</svg>